<svg xmlns="http://www.w3.org/2000/svg" viewBox="0 0 32 32" fill="#000000">
  <!-- Hexagon -->
  <path d="M16 3 L25 7 L29 16 L25 25 L16 29 L7 25 L3 16 L7 7 Z" fill="#000000" stroke="#000000" stroke-width="1"/>
  
  <!-- House -->
  <path d="M11 18 L16 13 L21 18 L21 23 L19 23 L19 20 L13 20 L13 23 L11 23 Z" fill="#FFFFFF"/>
  <rect x="15" y="20" width="2" height="3" fill="#000000"/>
  
  <!-- Star -->
  <g transform="translate(16, 8)">
    <circle cx="0" cy="0" r="1" fill="#FFFFFF"/>
    <path d="M0,-3 L0.8,-1.2 L0,-0.8 L-0.8,-1.2 Z M3,0 L1.2,0.8 L0.8,0 L1.2,-0.8 Z M0,3 L-0.8,1.2 L0,0.8 L0.8,1.2 Z M-3,0 L-1.2,-0.8 L-0.8,0 L-1.2,0.8 Z" fill="#FFFFFF"/>
    <path d="M2.1,-2.1 L1.5,-0.9 L1.2,-1.2 L0.9,-1.5 Z M2.1,2.1 L0.9,1.5 L1.2,1.2 L1.5,0.9 Z M-2.1,2.1 L-1.5,0.9 L-1.2,1.2 L-0.9,1.5 Z M-2.1,-2.1 L-0.9,-1.5 L-1.2,-1.2 L-1.5,-0.9 Z" fill="#FFFFFF"/>
  </g>
</svg>
