<svg xmlns="http://www.w3.org/2000/svg" viewBox="0 0 16 16" fill="#000000">
  <!-- Simplified hexagon -->
  <path d="M8 1 L13 4 L13 10 L8 13 L3 10 L3 4 Z" fill="#000000" stroke="#000000" stroke-width="0.5"/>
  
  <!-- Simple house -->
  <path d="M6 8 L8 6 L10 8 L10 11 L6 11 Z" fill="#FFFFFF"/>
  <rect x="7.5" y="9" width="1" height="2" fill="#000000"/>
  
  <!-- Small star -->
  <g transform="translate(8, 4)">
    <circle cx="0" cy="0" r="0.5" fill="#FFFFFF"/>
    <path d="M0,-1.5 L0.3,-0.5 L0,-0.4 L-0.3,-0.5 Z M1.5,0 L0.5,0.3 L0.4,0 L0.5,-0.3 Z M0,1.5 L-0.3,0.5 L0,0.4 L0.3,0.5 Z M-1.5,0 L-0.5,-0.3 L-0.4,0 L-0.5,0.3 Z" fill="#FFFFFF"/>
  </g>
</svg>
